<svg width="32" height="32" viewBox="0 0 32 32" fill="none" xmlns="http://www.w3.org/2000/svg">
<path d="M23.6134 15.0533L16.9467 8.38661C16.8199 8.26522 16.6704 8.17007 16.5067 8.10661C16.1821 7.97325 15.818 7.97325 15.4934 8.10661C15.3297 8.17007 15.1802 8.26522 15.0534 8.38661L8.38669 15.0533C8.26237 15.1776 8.16376 15.3252 8.09648 15.4876C8.0292 15.65 7.99457 15.8241 7.99457 15.9999C7.99457 16.355 8.13562 16.6955 8.38669 16.9466C8.63776 17.1977 8.97829 17.3387 9.33336 17.3387C9.68843 17.3387 10.029 17.1977 10.28 16.9466L14.6667 12.5466V22.6666C14.6667 23.0202 14.8072 23.3594 15.0572 23.6094C15.3073 23.8595 15.6464 23.9999 16 23.9999C16.3536 23.9999 16.6928 23.8595 16.9428 23.6094C17.1929 23.3594 17.3334 23.0202 17.3334 22.6666V12.5466L21.72 16.9466C21.844 17.0716 21.9914 17.1708 22.1539 17.2385C22.3164 17.3062 22.4907 17.341 22.6667 17.341C22.8427 17.341 23.017 17.3062 23.1795 17.2385C23.3419 17.1708 23.4894 17.0716 23.6134 16.9466C23.7383 16.8227 23.8375 16.6752 23.9052 16.5127C23.9729 16.3502 24.0078 16.176 24.0078 15.9999C24.0078 15.8239 23.9729 15.6497 23.9052 15.4872C23.8375 15.3247 23.7383 15.1772 23.6134 15.0533Z" fill="#E7E99D"/>
</svg>
