<svg width="174" height="211" viewBox="0 0 174 211" fill="none" xmlns="http://www.w3.org/2000/svg">
<ellipse cx="90.0216" cy="68.4183" rx="68.3302" ry="68.4183" fill="#2E5434"/>
<ellipse cx="89.5" cy="127.436" rx="84.5" ry="83.5644" fill="#2E5434"/>
<ellipse cx="85.0216" cy="68.4183" rx="68.3302" ry="68.4183" fill="#4D7C54"/>
<ellipse cx="84.5" cy="127.436" rx="84.5" ry="83.5644" fill="#4D7C54"/>
<ellipse cx="76.4506" cy="69.5" rx="59.0309" ry="65.5" fill="#B4D3A1"/>
<ellipse cx="76" cy="126" rx="73" ry="80" fill="#B4D3A1"/>
<ellipse cx="76.395" cy="71.2847" rx="51.7431" ry="61.2847" fill="#E7E99D"/>
<ellipse cx="76" cy="124.149" rx="63.9877" ry="74.8515" fill="#E7E99D"/>
<circle cx="52" cy="53" r="3.5" fill="#3C2614" stroke="#3C2614"/>
<circle cx="93" cy="53" r="3.5" fill="#3C2614" stroke="#3C2614"/>
<path d="M55 63L56.3102 64.9572C60.0931 70.6082 66.4453 74 73.2456 74V74C79.3095 74 85.0585 71.2996 88.9303 66.6327L91 64.1379" stroke="#3C2614" stroke-width="3"/>
<ellipse cx="71.5" cy="104.5" rx="5.5" ry="1.5" fill="#53351C"/>
<ellipse cx="73" cy="138.5" rx="36" ry="35.5" fill="#53351C"/>
<circle cx="69.5" cy="137.5" r="34.5" fill="#9B5C2A"/>
</svg>
