<svg width="25" height="25" viewBox="0 0 25 25" fill="none" xmlns="http://www.w3.org/2000/svg">
<path d="M7.95833 10.8125C7.95833 11.0729 7.97917 11.2813 8.03125 11.4584C8.08333 11.5834 8.15625 11.75 8.25 11.9375C8.29167 11.9792 8.30208 12.0417 8.30208 12.0938C8.30208 12.1667 8.26042 12.2292 8.16667 12.3021L7.72917 12.5938C7.66667 12.6354 7.60417 12.6563 7.55208 12.6563C7.47917 12.6563 7.41667 12.6146 7.34375 12.5521C7.25 12.4479 7.16667 12.3438 7.09375 12.2292C7.03125 12.1146 6.95833 11.9792 6.88542 11.8229C6.34375 12.4584 5.66667 12.7813 4.84375 12.7813C4.26042 12.7813 3.80208 12.6146 3.45833 12.2813C3.125 11.9479 2.94792 11.5 2.94792 10.9375C2.94792 10.3646 3.15625 9.89585 3.57292 9.52085C4 9.16669 4.5625 8.97919 5.27083 8.97919C5.51042 8.97919 5.72917 9.00002 6.01042 9.04169C6.25 9.07294 6.53125 9.12502 6.80208 9.18752V8.68752C6.80208 8.15627 6.69792 7.81252 6.47917 7.57294C6.25 7.35419 5.88542 7.26044 5.35417 7.26044C5.10417 7.26044 4.85417 7.29169 4.60417 7.34377C4.34375 7.40627 4.09375 7.47919 3.85417 7.58335C3.73958 7.62502 3.64583 7.65627 3.61458 7.66669C3.5625 7.68752 3.53125 7.68752 3.5 7.68752C3.40625 7.68752 3.35417 7.62502 3.35417 7.47919V7.13544C3.35417 7.03127 3.36458 6.94794 3.40625 6.89585C3.4375 6.84377 3.5 6.8021 3.59375 6.77085C3.84375 6.62502 4.125 6.52085 4.46875 6.43752C4.82236 6.34506 5.1866 6.29953 5.55208 6.3021C6.375 6.3021 6.97917 6.4896 7.36458 6.8646C7.75 7.2396 7.9375 7.81252 7.9375 8.57294V10.8125H7.95833ZM5.14583 11.875C5.375 11.875 5.60417 11.8334 5.85417 11.75C6.10417 11.6667 6.32292 11.5104 6.51042 11.3021C6.625 11.1667 6.70833 11.0209 6.77083 10.8542C6.77083 10.6875 6.82292 10.4896 6.82292 10.25V9.96877C6.61458 9.89585 6.40625 9.89585 6.17708 9.84377C5.96253 9.82033 5.74704 9.80643 5.53125 9.8021C5.0625 9.8021 4.72917 9.89585 4.5 10.0834C4.27083 10.2709 4.16667 10.5313 4.16667 10.875C4.16667 11.2084 4.23958 11.4584 4.41667 11.6146C4.58333 11.7917 4.82292 11.875 5.14583 11.875ZM10.7083 12.6146C10.6075 12.6176 10.5074 12.5962 10.4167 12.5521C10.3854 12.5 10.3333 12.4063 10.2917 12.2813L8.66667 6.9271C8.625 6.77085 8.60417 6.69794 8.60417 6.64585C8.60417 6.53127 8.65625 6.46877 8.77083 6.46877H9.44792C9.58333 6.46877 9.67708 6.4896 9.71875 6.54169C9.78125 6.58335 9.82292 6.6771 9.86458 6.81252L11.0208 11.3959L12.1042 6.81252C12.1354 6.6771 12.1771 6.58335 12.2396 6.54169C12.2917 6.50002 12.3854 6.46877 12.5 6.46877H13.0729C13.1979 6.46877 13.2917 6.4896 13.3438 6.54169C13.3958 6.58335 13.4479 6.6771 13.4792 6.81252L14.5833 11.4584L15.7708 6.81252C15.8125 6.6771 15.8646 6.58335 15.9063 6.54169C15.9688 6.50002 16.0521 6.46877 16.1771 6.46877H16.8229C16.9375 6.46877 17 6.53127 17 6.64585C17 6.6771 16.9896 6.71877 16.9792 6.77085C16.9792 6.77085 16.9583 6.85419 16.9375 6.9271L15.2604 12.2813C15.2188 12.4271 15.1771 12.5 15.1042 12.5521C15.0625 12.5938 14.9688 12.625 14.8542 12.625H14.2604C14.125 12.625 14.0625 12.6042 13.9792 12.5521C13.9091 12.4778 13.8652 12.3828 13.8542 12.2813L12.7813 7.81252L11.7083 12.2709C11.6771 12.4063 11.6354 12.5 11.5833 12.5521C11.4973 12.599 11.3998 12.6206 11.3021 12.6146H10.7083ZM19.6146 12.8021C19.2708 12.8021 18.8854 12.7604 18.5417 12.6771C18.1979 12.5938 17.9271 12.5 17.75 12.4063C17.6595 12.3628 17.5836 12.294 17.5313 12.2084C17.5029 12.15 17.4887 12.0857 17.4896 12.0209V11.6667C17.4896 11.5209 17.5417 11.4584 17.6458 11.4584H17.7708C17.8125 11.4584 17.875 11.5104 17.9479 11.5417C18.1771 11.6459 18.4375 11.7292 18.7083 11.7813C18.9896 11.8334 19.2708 11.8646 19.5313 11.8646C19.9688 11.8646 20.3125 11.7917 20.5417 11.6354C20.7813 11.4584 20.9063 11.2604 20.9063 10.9792C20.9063 10.7813 20.8333 10.625 20.7188 10.4896C20.5938 10.3646 20.3542 10.2396 20.0208 10.1354L19.0104 9.82294C18.5104 9.65627 18.1354 9.4271 17.9063 9.1146C17.6826 8.82533 17.5617 8.46983 17.5625 8.10419C17.5625 7.81252 17.625 7.56252 17.75 7.34377C17.875 7.1146 18.0417 6.9271 18.2292 6.77085C18.4583 6.6146 18.6875 6.50002 18.9688 6.41669C19.2396 6.33335 19.5313 6.29169 19.8438 6.29169C19.9896 6.29169 20.1458 6.3021 20.3125 6.32294C20.4583 6.34377 20.6042 6.37502 20.75 6.39585C20.8958 6.43752 21.0208 6.46877 21.1458 6.51044C21.2708 6.5521 21.3542 6.59377 21.4375 6.63544C21.5313 6.68752 21.6042 6.7396 21.6458 6.8021C21.6875 6.8646 21.7083 6.93752 21.7083 7.03127V7.3646C21.7083 7.51044 21.6563 7.58335 21.5521 7.58335C21.5 7.58335 21.4063 7.5521 21.2813 7.50002C20.8958 7.32294 20.4479 7.22919 19.9583 7.22919C19.5625 7.22919 19.2708 7.29169 19.0313 7.4271C18.8229 7.5521 18.7083 7.76044 18.7083 8.04169C18.7083 8.2396 18.7813 8.40627 18.9167 8.53127C19.0521 8.66669 19.3125 8.79169 19.6771 8.91669L20.6667 9.22919C21.1667 9.37502 21.5208 9.60419 21.7396 9.89585C21.9479 10.1771 22.0521 10.5 22.0521 10.8646C22.0521 11.1563 21.9896 11.4271 21.875 11.6667C21.75 11.8959 21.5833 12.1042 21.3542 12.2709C21.1563 12.4479 20.8958 12.5729 20.6042 12.6667C20.3125 12.7604 19.9583 12.8021 19.6146 12.8021ZM20.9167 16.1771C18.6354 17.8542 15.3229 18.75 12.5 18.75C8.48958 18.75 4.89583 17.2709 2.17708 14.8229C1.95833 14.625 2.15625 14.3646 2.41667 14.5209C5.35417 16.2188 8.96875 17.25 12.7188 17.25C15.25 17.25 18.0313 16.7292 20.5833 15.625C20.9688 15.4688 21.2917 15.8959 20.9167 16.1771ZM21.875 15.1042C21.5729 14.7188 19.9375 14.9167 19.1979 15C18.9792 15.0313 18.9479 14.8334 19.1458 14.6875C20.4479 13.7813 22.5938 14.0625 22.8333 14.3438C23.0833 14.6563 22.7708 16.8021 21.5521 17.8229C21.3542 17.9792 21.1771 17.8959 21.2604 17.7084C21.5417 17 22.1563 15.4584 21.875 15.1042Z" fill="#4D7C54"/>
</svg>
